<svg id="eAGLP9ke8iY1" xmlns="http://www.w3.org/2000/svg" xmlns:xlink="http://www.w3.org/1999/xlink" viewBox="0 0 1600 898" shape-rendering="geometricPrecision" text-rendering="geometricPrecision"><path d="M1220.000166,897.999999q0-383.441165,379.999833-383.441165" transform="translate(.000001 0.000002)" fill="none" stroke="#fff" stroke-width="20"/><path d="M389.108569,897.999999q0-378.357269-389.10857-383.441165" transform="translate(-1.611339 0.000002)" fill="none" stroke="#fff" stroke-width="20"/><path d="M1410.000084,706.279418L1220.000167,514.558835" transform="translate(.000001 0.000001)" fill="none" stroke="#f00" stroke-width="10" stroke-linecap="round"/><path d="M1410.000085,706.279419h-1215.4458" fill="none" stroke="#ff7000" stroke-width="10" stroke-linecap="round"/><path d="M194.554285,788.345853h433.130912" fill="none" stroke="#ffd300" stroke-width="10" stroke-linecap="round"/><path d="M194.554285,707.857817L421.876816,486.355616" transform="translate(.000001-1.578398)" fill="none" stroke="#b3ff00" stroke-width="10" stroke-linecap="round"/><path d="M93.075885,788.345853L389.10857,160.179912" fill="none" stroke="#00ff25" stroke-width="10" stroke-linecap="round"/><path d="M93.075885,788.345853v-339.345853" transform="translate(0 0.000002)" fill="none" stroke="#00ffd1" stroke-width="10" stroke-linecap="round"/><path d="M93.075885,788.345853L626.904947,254.516791h687.293029l200.858386,555.889523" transform="translate(.802153 0.802152)" fill="none" stroke="#00bdff" stroke-width="10" stroke-linecap="round" stroke-linejoin="round"/><path d="M1410.000084,811.208466q-518.564358,0-517.819576,0" fill="none" stroke="#0039ff" stroke-width="10" stroke-linecap="round"/><path d="M1515.858514,811.208466v-555.889523" transform="translate(0 0.000002)" fill="none" stroke="#6b00ff" stroke-width="10" stroke-linecap="round"/></svg>
